{
  "accessors": [
    {
      "bufferView": 2,
      "componentType": 5126,
      "count": 232,
      "max": [
        1.1392899751663208,
        2.545789957046509,
        0.4582099914550781
      ],
      "min": [
        -1.1392899751663208,
        -2.7372798919677734,
        -0.4586699903011322
      ],
      "type": "VEC3"
    },
    {
      "bufferView": 2,
      "byteOffset": 2784,
      "componentType": 5126,
      "count": 232,
      "max": [
        0.9905622005462646,
        0.6820321083068848,
        0.9969384074211121
      ],
      "min": [
        -0.9905622005462646,
        -0.9809340834617615,
        -0.9999997019767761
      ],
      "type": "VEC3"
    },
    {
      "bufferView": 1,
      "componentType": 5126,
      "count": 232,
      "max": [
        0.9367799758911133,
        0.9336400032043457
      ],
      "min": [
        0.00018000000272877514,
        0.00018000000272877514
      ],
      "type": "VEC2"
    },
    {
      "bufferView": 0,
      "componentType": 5125,
      "count": 504,
      "type": "SCALAR"
    },
    {
      "bufferView": 2,
      "byteOffset": 5568,
      "componentType": 5126,
      "count": 32,
      "max": [
        0.18720999360084534,
        0.7705900073051453,
        0.4582099914550781
      ],
      "min": [
        -0.18720999360084534,
        -0.5566400289535522,
        0.2071000039577484
      ],
      "type": "VEC3"
    },
    {
      "bufferView": 2,
      "byteOffset": 5952,
      "componentType": 5126,
      "count": 32,
      "max": [
        0.8683796525001526,
        0.00018000000272877514,
        1.0
      ],
      "min": [
        -0.8683796525001526,
        -0.19407527148723602,
        0.48647540807724
      ],
      "type": "VEC3"
    },
    {
      "bufferView": 1,
      "byteOffset": 1856,
      "componentType": 5126,
      "count": 32,
      "max": [
        0.9276900291442871,
        0.9998199939727783
      ],
      "min": [
        0.00018000000272877514,
        0.5228700041770935
      ],
      "type": "VEC2"
    },
    {
      "bufferView": 0,
      "byteOffset": 2016,
      "componentType": 5125,
      "count": 48,
      "type": "SCALAR"
    },
    {
      "bufferView": 2,
      "byteOffset": 6336,
      "componentType": 5126,
      "count": 252,
      "max": [
        1.7743500471115112,
        2.723520040512085,
        0.770609974861145
      ],
      "min": [
        -1.7743500471115112,
        -1.1720800399780273,
        -1.908310055732727
      ],
      "type": "VEC3"
    },
    {
      "bufferView": 2,
      "byteOffset": 9360,
      "componentType": 5126,
      "count": 252,
      "max": [
        0.999998152256012,
        0.9999849200248718,
        0.9999883770942688
      ],
      "min": [
        -0.999998152256012,
        -0.9990840554237366,
        -0.9549041390419006
      ],
      "type": "VEC3"
    },
    {
      "bufferView": 1,
      "byteOffset": 2112,
      "componentType": 5126,
      "count": 252,
      "max": [
        1.0,
        1.0
      ],
      "min": [
        0.0,
        0.0
      ],
      "type": "VEC2"
    },
    {
      "bufferView": 0,
      "byteOffset": 2208,
      "componentType": 5125,
      "count": 516,
      "type": "SCALAR"
    },
    {
      "bufferView": 2,
      "byteOffset": 12384,
      "componentType": 5126,
      "count": 70,
      "max": [
        0.9950900077819824,
        2.7402899265289307,
        -0.3483999967575073
      ],
      "min": [
        -0.9950900077819824,
        1.0600899457931519,
        -0.7414799928665161
      ],
      "type": "VEC3"
    },
    {
      "bufferView": 2,
      "byteOffset": 13224,
      "componentType": 5126,
      "count": 70,
      "max": [
        1.0,
        1.0,
        1.0
      ],
      "min": [
        -1.0,
        -1.0,
        -1.0
      ],
      "type": "VEC3"
    },
    {
      "bufferView": 1,
      "byteOffset": 4128,
      "componentType": 5126,
      "count": 70,
      "max": [
        0.9998400211334229,
        0.9969099760055542
      ],
      "min": [
        0.00015999999595806003,
        0.00015999999595806003
      ],
      "type": "VEC2"
    },
    {
      "bufferView": 0,
      "byteOffset": 4272,
      "componentType": 5125,
      "count": 144,
      "type": "SCALAR"
    }
  ],
  "asset": {
    "extras": {
      "author": "rafta (https://sketchfab.com/rafta)",
      "license": "CC-BY-NC-4.0 (http://creativecommons.org/licenses/by-nc/4.0/)",
      "source": "https://sketchfab.com/3d-models/apex-wipeout-anti-grav-racer-fb146041f58d4f1aa09d15f32a541352",
      "title": "Apex Wipeout Anti-grav Racer"
    },
    "generator": "Sketchfab-12.68.0",
    "version": "2.0"
  },
  "bufferViews": [
    {
      "buffer": 0,
      "byteLength": 4848,
      "name": "floatBufferViews",
      "target": 34963
    },
    {
      "buffer": 0,
      "byteLength": 4688,
      "byteOffset": 4848,
      "byteStride": 8,
      "name": "floatBufferViews",
      "target": 34962
    },
    {
      "buffer": 0,
      "byteLength": 14064,
      "byteOffset": 9536,
      "byteStride": 12,
      "name": "floatBufferViews",
      "target": 34962
    }
  ],
  "buffers": [
    {
      "byteLength": 23600,
      "uri": "scene.bin"
    }
  ],
  "images": [
    {
      "uri": "textures/Material.003_baseColor.png"
    }
  ],
  "materials": [
    {
      "name": "Material",
      "pbrMetallicRoughness": {
        "baseColorFactor": [
          0.47928451499303804,
          0.08256989357045591,
          0.08079624059157806,
          1.0
        ],
        "metallicFactor": 0.33708079268292684,
        "roughnessFactor": 0.35804115853658525
      }
    },
    {
      "doubleSided": true,
      "name": "Material.004",
      "pbrMetallicRoughness": {
        "baseColorFactor": [
          0.0758955803843573,
          0.0758955803843573,
          0.0758955803843573,
          1.0
        ],
        "roughnessFactor": 0.35804115853658525
      }
    },
    {
      "doubleSided": true,
      "name": "Material.003",
      "pbrMetallicRoughness": {
        "baseColorTexture": {
          "index": 0
        },
        "metallicFactor": 0.1480564024390244,
        "roughnessFactor": 0.7421875
      }
    },
    {
      "doubleSided": true,
      "name": "Material.001",
      "pbrMetallicRoughness": {
        "roughnessFactor": 0.20000000298023224
      }
    }
  ],
  "meshes": [
    {
      "name": "Airframe front_0",
      "primitives": [
        {
          "attributes": {
            "NORMAL": 1,
            "POSITION": 0,
            "TEXCOORD_0": 2
          },
          "indices": 3,
          "material": 2,
          "mode": 4
        }
      ]
    },
    {
      "name": "Airframe front_1",
      "primitives": [
        {
          "attributes": {
            "NORMAL": 5,
            "POSITION": 4,
            "TEXCOORD_0": 6
          },
          "indices": 7,
          "material": 3,
          "mode": 4
        }
      ]
    },
    {
      "name": "Engine block_0",
      "primitives": [
        {
          "attributes": {
            "NORMAL": 9,
            "POSITION": 8,
            "TEXCOORD_0": 10
          },
          "indices": 11,
          "material": 1,
          "mode": 4
        }
      ]
    },
    {
      "name": "Airframe aft_0",
      "primitives": [
        {
          "attributes": {
            "NORMAL": 13,
            "POSITION": 12,
            "TEXCOORD_0": 14
          },
          "indices": 15,
          "material": 0,
          "mode": 4
        }
      ]
    }
  ],
  "nodes": [
    {
      "children": [
        1
      ],
      "matrix": [
        1.0,
        0.0,
        0.0,
        0.0,
        0.0,
        2.220446049250313e-16,
        -1.0,
        0.0,
        0.0,
        1.0,
        2.220446049250313e-16,
        0.0,
        0.0,
        0.0,
        0.0,
        1.0
      ],
      "name": "Sketchfab_model"
    },
    {
      "children": [
        2,
        5,
        7,
        9
      ],
      "name": "Root"
    },
    {
      "children": [
        3,
        4
      ],
      "name": "Airframe front"
    },
    {
      "mesh": 0,
      "name": "Airframe front_0"
    },
    {
      "mesh": 1,
      "name": "Airframe front_1"
    },
    {
      "children": [
        6
      ],
      "matrix": [
        0.3389700000000001,
        0.0,
        0.0,
        0.0,
        0.0,
        1.0,
        0.0,
        0.0,
        0.0,
        0.0,
        0.16224000000000005,
        0.0,
        0.0,
        0.003300000000000001,
        -0.06813000000000002,
        1.0
      ],
      "name": "Engine block"
    },
    {
      "mesh": 2,
      "name": "Engine block_0"
    },
    {
      "children": [
        8
      ],
      "matrix": [
        1.0,
        0.0,
        0.0,
        0.0,
        0.0,
        1.0,
        0.0,
        0.0,
        0.0,
        0.0,
        1.0,
        0.0,
        0.0,
        0.0,
        0.6538300000000001,
        1.0
      ],
      "name": "Airframe aft"
    },
    {
      "mesh": 3,
      "name": "Airframe aft_0"
    },
    {
      "children": [
        10
      ],
      "matrix": [
        1.0,
        0.0,
        0.0,
        0.0,
        0.0,
        1.0,
        0.0,
        0.0,
        0.0,
        0.0,
        1.0,
        0.0,
        1.3087,
        -0.6734800000000001,
        2.9783399999999998,
        1.0
      ],
      "name": "Sun"
    },
    {
      "name": "Sun"
    }
  ],
  "samplers": [
    {
      "magFilter": 9729,
      "minFilter": 9987,
      "wrapS": 10497,
      "wrapT": 10497
    }
  ],
  "scene": 0,
  "scenes": [
    {
      "name": "Sketchfab_Scene",
      "nodes": [
        0
      ]
    }
  ],
  "textures": [
    {
      "sampler": 0,
      "source": 0
    }
  ]
}
